<?xml version="1.0" encoding="UTF-8" standalone="no"?><svg xmlns="http://www.w3.org/2000/svg" xmlns:xlink="http://www.w3.org/1999/xlink" contentScriptType="application/ecmascript" contentStyleType="text/css" height="517.9455px" preserveAspectRatio="none" style="width:1913px;height:517px;" version="1.1" viewBox="0 0 1913 517" width="1913.1398px" zoomAndPan="magnify"><defs/><g><ellipse cx="1405.018" cy="115.5447" fill="#F8F8F8" rx="24.4016" ry="11.3554" style="stroke: #383838; stroke-width: 0.4287628405538187;"/><text fill="#000000" font-family="Tahoma, sans-serif" font-size="10.2903" lengthAdjust="spacingAndGlyphs" textLength="30.8709" x="1389.5825" y="118.7537">action</text><ellipse cx="1101.6934" cy="339.8778" fill="#F8F8F8" rx="55.5121" ry="13.1605" style="stroke: #383838; stroke-width: 0.4287628405538187;"/><text fill="#000000" font-family="Tahoma, sans-serif" font-size="10.2903" lengthAdjust="spacingAndGlyphs" textLength="85.7526" x="1058.8171" y="343.0868">animationHandler</text><ellipse cx="1101.6028" cy="157.2924" fill="#F8F8F8" rx="47.2749" ry="11.513" style="stroke: #383838; stroke-width: 0.4287628405538187;"/><text fill="#000000" font-family="Tahoma, sans-serif" font-size="10.2903" lengthAdjust="spacingAndGlyphs" textLength="64.3144" x="1069.4456" y="160.5014">audioHandler</text><ellipse cx="1260.3224" cy="172.0573" fill="#F8F8F8" rx="67.5042" ry="15.5589" style="stroke: #383838; stroke-width: 0.4287628405538187;"/><text fill="#000000" font-family="Tahoma, sans-serif" font-size="10.2903" lengthAdjust="spacingAndGlyphs" textLength="114.0509" x="1203.297" y="175.2664">backgroundsMovement</text><ellipse cx="1260.2002" cy="300.7703" fill="#F8F8F8" rx="26.2207" ry="11.3554" style="stroke: #383838; stroke-width: 0.4287628405538187;"/><text fill="#000000" font-family="Tahoma, sans-serif" font-size="10.2903" lengthAdjust="spacingAndGlyphs" textLength="33.4435" x="1243.4784" y="303.9793">cactus</text><ellipse cx="1404.8456" cy="241.601" fill="#F8F8F8" rx="41.3798" ry="11.3554" style="stroke: #383838; stroke-width: 0.4287628405538187;"/><text fill="#000000" font-family="Tahoma, sans-serif" font-size="10.2903" lengthAdjust="spacingAndGlyphs" textLength="54.8816" x="1377.4048" y="244.81">cactus/idle</text><ellipse cx="495.5815" cy="325.6385" fill="#F8F8F8" rx="21.3698" ry="11.3554" style="stroke: #383838; stroke-width: 0.4287628405538187;"/><text fill="#000000" font-family="Tahoma, sans-serif" font-size="10.2903" lengthAdjust="spacingAndGlyphs" textLength="26.5833" x="482.2899" y="328.8475">class</text><ellipse cx="610.0145" cy="366.7407" fill="#F8F8F8" rx="56.9104" ry="13.4401" style="stroke: #383838; stroke-width: 0.4287628405538187;"/><text fill="#000000" font-family="Tahoma, sans-serif" font-size="10.2903" lengthAdjust="spacingAndGlyphs" textLength="89.1827" x="565.4232" y="369.9497">class/Background</text><ellipse cx="610.1212" cy="409.4668" fill="#F8F8F8" rx="47.5844" ry="11.5749" style="stroke: #383838; stroke-width: 0.4287628405538187;"/><text fill="#000000" font-family="Tahoma, sans-serif" font-size="10.2903" lengthAdjust="spacingAndGlyphs" textLength="65.172" x="577.5352" y="412.6759">class/Cactus</text><ellipse cx="610.2745" cy="287.0499" fill="#F8F8F8" rx="42.5925" ry="11.3554" style="stroke: #383838; stroke-width: 0.4287628405538187;"/><text fill="#000000" font-family="Tahoma, sans-serif" font-size="10.2903" lengthAdjust="spacingAndGlyphs" textLength="56.5967" x="581.9761" y="290.2589">class/Ptero</text><!--MD5=[cfa9fb3041e051ebc87e8d950909f2df]
entity _class_Tyra--><rect fill="#F8F8F8" height="29.5712" rx="2.5726" ry="2.5726" style="stroke: #000000; stroke-width: 0.4287628405538187;" width="68.6021" x="575.8285" y="439.4819"/><text fill="#000000" font-family="Tahoma, sans-serif" font-size="10.2903" lengthAdjust="spacingAndGlyphs" textLength="51.4515" x="584.4038" y="458.3525">class/Tyra</text><ellipse cx="1101.453" cy="115.4152" fill="#F8F8F8" rx="50.1265" ry="12.0834" style="stroke: #383838; stroke-width: 0.4287628405538187;"/><text fill="#000000" font-family="Tahoma, sans-serif" font-size="10.2903" lengthAdjust="spacingAndGlyphs" textLength="72.0322" x="1065.4369" y="118.6242">controlHandler</text><ellipse cx="1260.2054" cy="115.5447" fill="#F8F8F8" rx="43.8052" ry="11.3554" style="stroke: #383838; stroke-width: 0.4287628405538187;"/><text fill="#000000" font-family="Tahoma, sans-serif" font-size="10.2903" lengthAdjust="spacingAndGlyphs" textLength="58.3117" x="1231.0495" y="118.7537">controlsList</text><ellipse cx="1513.1271" cy="116.4023" fill="#F8F8F8" rx="30.4652" ry="11.3554" style="stroke: #383838; stroke-width: 0.4287628405538187;"/><text fill="#000000" font-family="Tahoma, sans-serif" font-size="10.2903" lengthAdjust="spacingAndGlyphs" textLength="39.4462" x="1493.4041" y="119.6113">doJump</text><ellipse cx="224.9555" cy="212.8946" fill="#F8F8F8" rx="55.1654" ry="13.0911" style="stroke: #383838; stroke-width: 0.4287628405538187;"/><text fill="#000000" font-family="Tahoma, sans-serif" font-size="10.2903" lengthAdjust="spacingAndGlyphs" textLength="84.895" x="182.508" y="216.1037">entitiesAnimation</text><ellipse cx="377.243" cy="235.5983" fill="#F8F8F8" rx="21.3698" ry="11.3554" style="stroke: #383838; stroke-width: 0.4287628405538187;"/><text fill="#000000" font-family="Tahoma, sans-serif" font-size="10.2903" lengthAdjust="spacingAndGlyphs" textLength="26.5833" x="363.9513" y="238.8073">entity</text><ellipse cx="1405.1798" cy="440.2671" fill="#F8F8F8" rx="12.1294" ry="10.218" style="stroke: #383838; stroke-width: 0.4287628405538187;"/><text fill="#000000" font-family="Tahoma, sans-serif" font-size="10.2903" lengthAdjust="spacingAndGlyphs" textLength="11.1478" x="1399.6059" y="443.4761">fly</text><ellipse cx="1513.0662" cy="76.0985" fill="#F8F8F8" rx="24.4016" ry="11.3554" style="stroke: #383838; stroke-width: 0.4287628405538187;"/><text fill="#000000" font-family="Tahoma, sans-serif" font-size="10.2903" lengthAdjust="spacingAndGlyphs" textLength="30.8709" x="1497.6307" y="79.3076">freeze</text><ellipse cx="988.4076" cy="245.0311" fill="#F8F8F8" rx="21.9762" ry="11.3554" style="stroke: #383838; stroke-width: 0.4287628405538187;"/><text fill="#000000" font-family="Tahoma, sans-serif" font-size="10.2903" lengthAdjust="spacingAndGlyphs" textLength="27.4408" x="974.6872" y="248.2401">game</text><ellipse cx="69.5741" cy="149.8458" fill="#F8F8F8" rx="39.5607" ry="11.3554" style="stroke: #383838; stroke-width: 0.4287628405538187;"/><text fill="#000000" font-family="Tahoma, sans-serif" font-size="10.2903" lengthAdjust="spacingAndGlyphs" textLength="52.3091" x="43.4195" y="153.0548">gameLoop</text><!--MD5=[c49cdd9805a08275b20d68979abce02e]
entity _GameObject--><rect fill="#F8F8F8" height="29.5712" rx="2.5726" ry="2.5726" style="stroke: #000000; stroke-width: 0.4287628405538187;" width="79.7499" x="703.1711" y="352.0143"/><text fill="#000000" font-family="Tahoma, sans-serif" font-size="10.2903" lengthAdjust="spacingAndGlyphs" textLength="62.5994" x="711.7463" y="370.8849">GameObject</text><ellipse cx="874.797" cy="289.3533" fill="#F8F8F8" rx="55.8599" ry="13.23" style="stroke: #383838; stroke-width: 0.4287628405538187;"/><text fill="#000000" font-family="Tahoma, sans-serif" font-size="10.2903" lengthAdjust="spacingAndGlyphs" textLength="86.6101" x="831.4919" y="292.5623">gameViewHandler</text><ellipse cx="69.6729" cy="109.542" fill="#F8F8F8" rx="23.7953" ry="11.3554" style="stroke: #383838; stroke-width: 0.4287628405538187;"/><text fill="#000000" font-family="Tahoma, sans-serif" font-size="10.2903" font-weight="bold" lengthAdjust="spacingAndGlyphs" textLength="30.0134" x="54.6662" y="112.7511">index</text><ellipse cx="69.6586" cy="64.6972" fill="#F8F8F8" rx="64.5135" ry="14.9608" style="stroke: #383838; stroke-width: 0.4287628405538187;"/><text fill="#000000" font-family="Tahoma, sans-serif" font-size="10.2903" font-weight="bold" lengthAdjust="spacingAndGlyphs" textLength="107.1907" x="16.0633" y="67.9063">interfaceAnimation</text><ellipse cx="1405.0073" cy="321.2761" fill="#F8F8F8" rx="12.3856" ry="10.423" style="stroke: #383838; stroke-width: 0.4287628405538187;"/><text fill="#000000" font-family="Tahoma, sans-serif" font-size="10.2903" lengthAdjust="spacingAndGlyphs" textLength="12.0054" x="1399.0046" y="324.4851">ko</text><ellipse cx="1260.0274" cy="220.1055" fill="#F8F8F8" rx="61.2065" ry="14.2994" style="stroke: #383838; stroke-width: 0.4287628405538187;"/><text fill="#000000" font-family="Tahoma, sans-serif" font-size="10.2903" lengthAdjust="spacingAndGlyphs" textLength="99.473" x="1210.2909" y="223.3145">obstaclesMovement</text><ellipse cx="1513.3174" cy="179.8592" fill="#F8F8F8" rx="23.7953" ry="11.3554" style="stroke: #383838; stroke-width: 0.4287628405538187;"/><text fill="#000000" font-family="Tahoma, sans-serif" font-size="10.2903" lengthAdjust="spacingAndGlyphs" textLength="30.0134" x="1498.3107" y="183.0682">pause</text><ellipse cx="1260.1697" cy="341.074" fill="#F8F8F8" rx="23.1889" ry="11.3554" style="stroke: #383838; stroke-width: 0.4287628405538187;"/><text fill="#000000" font-family="Tahoma, sans-serif" font-size="10.2903" lengthAdjust="spacingAndGlyphs" textLength="29.1559" x="1245.5918" y="344.283">player</text><ellipse cx="1405.2439" cy="281.9047" fill="#F8F8F8" rx="38.3479" ry="11.3554" style="stroke: #383838; stroke-width: 0.4287628405538187;"/><text fill="#000000" font-family="Tahoma, sans-serif" font-size="10.2903" lengthAdjust="spacingAndGlyphs" textLength="50.594" x="1379.9469" y="285.1137">player/idle</text><ellipse cx="377.2702" cy="191.7345" fill="#F8F8F8" rx="60.8432" ry="14.2267" style="stroke: #383838; stroke-width: 0.4287628405538187;"/><text fill="#000000" font-family="Tahoma, sans-serif" font-size="10.2903" font-weight="bold" lengthAdjust="spacingAndGlyphs" textLength="98.6155" x="327.9625" y="194.9435">playersCollisions</text><ellipse cx="1259.9238" cy="400.2433" fill="#F8F8F8" rx="41.3798" ry="11.3554" style="stroke: #383838; stroke-width: 0.4287628405538187;"/><text fill="#000000" font-family="Tahoma, sans-serif" font-size="10.2903" lengthAdjust="spacingAndGlyphs" textLength="54.8816" x="1232.4829" y="403.4523">pterodactyl</text><ellipse cx="1404.8545" cy="360.7715" fill="#F8F8F8" rx="13.5191" ry="11.3298" style="stroke: #383838; stroke-width: 0.4287628405538187;"/><text fill="#000000" font-family="Tahoma, sans-serif" font-size="10.2903" lengthAdjust="spacingAndGlyphs" textLength="15.4355" x="1397.1368" y="363.9805">run</text><ellipse cx="1405.1398" cy="401.1008" fill="#F8F8F8" rx="36.5289" ry="11.3554" style="stroke: #383838; stroke-width: 0.4287628405538187;"/><text fill="#000000" font-family="Tahoma, sans-serif" font-size="10.2903" lengthAdjust="spacingAndGlyphs" textLength="48.0214" x="1381.1291" y="404.3098">run_down</text><ellipse cx="1731.8824" cy="419.9663" fill="#F8F8F8" rx="21.9762" ry="11.3554" style="stroke: #383838; stroke-width: 0.4287628405538187;"/><text fill="#000000" font-family="Tahoma, sans-serif" font-size="10.2903" lengthAdjust="spacingAndGlyphs" textLength="27.4408" x="1718.162" y="423.1754">sprite</text><ellipse cx="1846.9189" cy="334.654" fill="#F8F8F8" rx="57.2628" ry="13.5106" style="stroke: #383838; stroke-width: 0.4287628405538187;"/><text fill="#000000" font-family="Tahoma, sans-serif" font-size="10.2903" lengthAdjust="spacingAndGlyphs" textLength="90.0402" x="1801.8988" y="337.863">sprite/Background</text><ellipse cx="1846.9846" cy="378.6582" fill="#F8F8F8" rx="47.8957" ry="11.6372" style="stroke: #383838; stroke-width: 0.4287628405538187;"/><text fill="#000000" font-family="Tahoma, sans-serif" font-size="10.2903" lengthAdjust="spacingAndGlyphs" textLength="66.0295" x="1813.9699" y="381.8672">sprite/Cactus</text><ellipse cx="1847.0041" cy="419.9663" fill="#F8F8F8" rx="43.1988" ry="11.3554" style="stroke: #383838; stroke-width: 0.4287628405538187;"/><text fill="#000000" font-family="Tahoma, sans-serif" font-size="10.2903" lengthAdjust="spacingAndGlyphs" textLength="57.4542" x="1818.277" y="423.1754">sprite/Ptero</text><ellipse cx="1847.2248" cy="460.27" fill="#F8F8F8" rx="39.5607" ry="11.3554" style="stroke: #383838; stroke-width: 0.4287628405538187;"/><text fill="#000000" font-family="Tahoma, sans-serif" font-size="10.2903" lengthAdjust="spacingAndGlyphs" textLength="52.3091" x="1821.0703" y="463.4791">sprite/Tyra</text><ellipse cx="1626.8372" cy="419.6953" fill="#F8F8F8" rx="47.2749" ry="11.513" style="stroke: #383838; stroke-width: 0.4287628405538187;"/><text fill="#000000" font-family="Tahoma, sans-serif" font-size="10.2903" lengthAdjust="spacingAndGlyphs" textLength="64.3144" x="1594.68" y="422.9043">spriteHandler</text><ellipse cx="1101.4665" cy="198.7247" fill="#F8F8F8" rx="17.1253" ry="11.3554" style="stroke: #383838; stroke-width: 0.4287628405538187;"/><text fill="#000000" font-family="Tahoma, sans-serif" font-size="10.2903" lengthAdjust="spacingAndGlyphs" textLength="20.5806" x="1091.1762" y="201.9337">task</text><ellipse cx="69.5886" cy="19.4059" fill="#F8F8F8" rx="52.4381" ry="12.5457" style="stroke: #383838; stroke-width: 0.4287628405538187;"/><text fill="#000000" font-family="Tahoma, sans-serif" font-size="10.2903" font-weight="bold" lengthAdjust="spacingAndGlyphs" textLength="78.0348" x="30.5712" y="22.6149">tasksManager</text><ellipse cx="1847.1897" cy="499.4864" fill="#F8F8F8" rx="11.656" ry="9.8393" style="stroke: #383838; stroke-width: 0.4287628405538187;"/><text fill="#000000" font-family="Tahoma, sans-serif" font-size="10.2903" lengthAdjust="spacingAndGlyphs" textLength="9.4328" x="1842.4733" y="502.6955">Ui</text><ellipse cx="1101.4665" cy="383.0927" fill="#F8F8F8" rx="17.1253" ry="11.3554" style="stroke: #383838; stroke-width: 0.4287628405538187;"/><text fill="#000000" font-family="Tahoma, sans-serif" font-size="10.2903" lengthAdjust="spacingAndGlyphs" textLength="20.5806" x="1091.1762" y="386.3018">utils</text><!--MD5=[6db2e42b4e270362e59fd76697d399e5]
link action to doJump--><path d="M1429.5125,115.5276 C1443.8331,115.6433 1462.3385,115.7926 1478.2199,115.9203 " fill="none" id="action-&gt;doJump" style="stroke: #000000; stroke-width: 0.4287628405538187;"/><polygon fill="#000000" points="1482.6276,115.9555,1474.9296,112.4813,1478.34,115.931,1474.8904,119.3414,1482.6276,115.9555" style="stroke: #000000; stroke-width: 0.4287628405538187;"/><!--MD5=[a84e8d41593f27dd01f90858a0f7d35b]
link action to freeze--><path d="M1424.4359,108.4659 C1442.4697,101.7763 1469.9191,91.5923 1489.3249,84.3942 " fill="none" id="action-&gt;freeze" style="stroke: #000000; stroke-width: 0.4287628405538187;"/><polygon fill="#000000" points="1493.5782,82.8155,1485.1504,82.2669,1489.5553,84.2987,1487.5235,88.7036,1493.5782,82.8155" style="stroke: #000000; stroke-width: 0.4287628405538187;"/><!--MD5=[17ce121015f6bb64f71b543b2bd196f5]
link action to pause--><path d="M1420.4741,124.1449 C1439.6484,135.7395 1473.3406,156.1203 1494.1356,168.6967 " fill="none" id="action-&gt;pause" style="stroke: #000000; stroke-width: 0.4287628405538187;"/><polygon fill="#000000" points="1497.8573,170.9503,1493.0262,164.0229,1494.1877,168.7326,1489.4779,169.8942,1497.8573,170.9503" style="stroke: #000000; stroke-width: 0.4287628405538187;"/><!--MD5=[f3d2f70aae9fbf71e2dcc70d6919554f]
link animationHandler to cactus--><path d="M1140.3377,330.4604 C1169.0648,323.2392 1207.7563,313.5131 1233.0962,307.1434 " fill="none" id="animationHandler-&gt;cactus" style="stroke: #000000; stroke-width: 0.4287628405538187;"/><polygon fill="#000000" points="1237.3581,306.0732,1229.0384,304.6202,1233.1989,307.1146,1230.7045,311.275,1237.3581,306.0732" style="stroke: #000000; stroke-width: 0.4287628405538187;"/><!--MD5=[6b75b958ffd0b1b07b4f39c3551d199e]
link animationHandler to player--><path d="M1156.7936,340.3065 C1182.305,340.4463 1211.5723,340.6058 1232.273,340.719 " fill="none" id="animationHandler-&gt;player" style="stroke: #000000; stroke-width: 0.4287628405538187;"/><polygon fill="#000000" points="1236.8264,340.7438,1229.1284,337.2697,1232.5389,340.7193,1229.0892,344.1298,1236.8264,340.7438" style="stroke: #000000; stroke-width: 0.4287628405538187;"/><!--MD5=[fc26bf43e7733300b89f8f2d31b1ffd6]
link animationHandler to pterodactyl--><path d="M1131.8653,351.2991 C1160.4724,362.2403 1203.5201,378.7082 1231.5098,389.4161 " fill="none" id="animationHandler-&gt;pterodactyl" style="stroke: #000000; stroke-width: 0.4287628405538187;"/><polygon fill="#000000" points="1235.5316,390.9528,1229.548,384.9925,1231.5267,389.4215,1227.0978,391.4002,1235.5316,390.9528" style="stroke: #000000; stroke-width: 0.4287628405538187;"/><!--MD5=[867a1fee2ac2e34c4b2f780cdb10ddcd]
link cactus to cactus/idle--><path d="M1280.6031,293.5894 C1293.9033,288.7701 1311.8342,282.0985 1327.4498,275.6945 C1344.9776,268.5067 1364.4606,259.79 1379.4072,252.9426 " fill="none" id="cactus-&gt;cactus/idle" style="stroke: #000000; stroke-width: 0.4287628405538187;"/><polygon fill="#000000" points="1383.4976,251.0638,1375.0526,251.1657,1379.6008,252.8523,1377.9142,257.4006,1383.4976,251.0638" style="stroke: #000000; stroke-width: 0.4287628405538187;"/><!--MD5=[93893b8c5c63ae0e5a969c7f6a60bee5]
link class to class/Background--><path d="M513.6339,331.6824 C529.7399,337.5616 554.3295,346.5373 574.5422,353.9154 " fill="none" id="class-&gt;class/Background" style="stroke: #000000; stroke-width: 0.4287628405538187;"/><polygon fill="#000000" points="578.7844,355.4633,572.7104,349.5951,574.7566,353.9933,570.3584,356.0395,578.7844,355.4633" style="stroke: #000000; stroke-width: 0.4287628405538187;"/><!--MD5=[c8669f1b3a77bce14c1ae07a64ddada8]
link class to class/Cactus--><path d="M503.3384,335.8705 C512.9221,349.7684 531.6145,374.2851 553.1041,388.8879 C559.2217,393.0452 566.2825,396.4821 573.2885,399.2777 " fill="none" id="class-&gt;class/Cactus" style="stroke: #000000; stroke-width: 0.4287628405538187;"/><polygon fill="#000000" points="577.6344,400.9361,571.6471,394.9796,573.6286,399.4073,569.2009,401.3889,577.6344,400.9361" style="stroke: #000000; stroke-width: 0.4287628405538187;"/><!--MD5=[f4519a3c0300ee752a2cf829c2c9cc90]
link class to class/Ptero--><path d="M513.88,319.4858 C531.3709,313.5002 558.6874,304.1524 579.6136,296.9912 " fill="none" id="class-&gt;class/Ptero" style="stroke: #000000; stroke-width: 0.4287628405538187;"/><polygon fill="#000000" points="583.7092,295.59,575.2966,294.8425,579.6523,296.9778,577.5171,301.3334,583.7092,295.59" style="stroke: #000000; stroke-width: 0.4287628405538187;"/><!--MD5=[1d9ecefb5882cea03859920a7faa86dc]
link class to _class_Tyra--><path d="M499.7531,336.4408 C506.4427,357.3678 523.6575,403.1923 553.1041,430.0491 C558.425,434.902 564.8753,438.8697 571.4808,442.0806 " fill="none" id="class-&gt;_class_Tyra" style="stroke: #000000; stroke-width: 0.4287628405538187;"/><polygon fill="#000000" points="575.6055,443.9831,570.0341,437.6357,571.7121,442.1872,567.1607,443.8652,575.6055,443.9831" style="stroke: #000000; stroke-width: 0.4287628405538187;"/><!--MD5=[9cb93d4771531683ca15c6face8f7752]
link class to _GameObject--><path d="M517.1797,326.5218 C549.4622,328.4924 613.69,333.4883 667.155,344.2966 C677.4118,346.3701 688.2861,349.2136 698.4795,352.1755 " fill="none" id="class-&gt;_GameObject" style="stroke: #000000; stroke-width: 0.4287628405538187;"/><polygon fill="#000000" points="702.8023,353.4506,696.3715,347.9758,698.6901,352.2367,694.4292,354.5553,702.8023,353.4506" style="stroke: #000000; stroke-width: 0.4287628405538187;"/><!--MD5=[66ec2a779885d1d627103bd47c2e393c]
link class/Background to _GameObject--><path d="M667.3899,366.5922 C677.7489,366.5922 688.4208,366.5922 698.3432,366.5922 " fill="none" id="class/Background-&gt;_GameObject" style="stroke: #000000; stroke-width: 0.4287628405538187;"/><polygon fill="#000000" points="702.8461,366.5922,695.1283,363.1621,698.5584,366.5922,695.1283,370.0223,702.8461,366.5922" style="stroke: #000000; stroke-width: 0.4287628405538187;"/><!--MD5=[bc47527a0eeca7c2b340a43a8e7f684a]
link class/Cactus to _GameObject--><path d="M639.1328,400.2707 C656.5663,394.5733 679.307,387.142 698.9898,380.7097 " fill="none" id="class/Cactus-&gt;_GameObject" style="stroke: #000000; stroke-width: 0.4287628405538187;"/><polygon fill="#000000" points="703.1402,379.3531,694.7388,378.4894,699.0646,380.6847,696.8694,385.0104,703.1402,379.3531" style="stroke: #000000; stroke-width: 0.4287628405538187;"/><!--MD5=[6a79d372986b97acbecd36b962038572]
link class/Ptero to _GameObject--><path d="M634.7697,296.0367 C644.9862,300.3244 656.9067,305.7859 667.155,311.7106 C686.2186,322.7315 706.2753,337.5933 720.8507,349.0721 " fill="none" id="class/Ptero-&gt;_GameObject" style="stroke: #000000; stroke-width: 0.4287628405538187;"/><polygon fill="#000000" points="724.4343,351.9131,720.5164,344.4312,721.074,349.2499,716.2553,349.8075,724.4343,351.9131" style="stroke: #000000; stroke-width: 0.4287628405538187;"/><!--MD5=[07e3cd66ba72a555de2894bc0892018e]
link _class_Tyra to _GameObject--><path d="M644.4803,441.6792 C652.1517,438.32 660.1156,434.3938 667.155,430.0491 C688.3453,416.9701 709.7637,398.1766 724.2619,384.4365 " fill="none" id="_class_Tyra-&gt;_GameObject" style="stroke: #000000; stroke-width: 0.4287628405538187;"/><polygon fill="#000000" points="727.4296,381.4103,719.4792,384.2597,724.3288,384.3714,724.217,389.2211,727.4296,381.4103" style="stroke: #000000; stroke-width: 0.4287628405538187;"/><!--MD5=[1abbb9a84c210835acf0cb351e83adb0]
link _class_Tyra to utils--><path d="M644.6424,449.1677 C739.1254,435.4338 1004.84,396.8097 1080.3795,385.83 " fill="none" id="_class_Tyra-&gt;utils" style="stroke: #000000; stroke-width: 0.4287628405538187;"/><polygon fill="#000000" points="1084.6585,385.2074,1076.5235,382.938,1080.4166,385.8319,1077.5227,389.7251,1084.6585,385.2074" style="stroke: #000000; stroke-width: 0.4287628405538187;"/><!--MD5=[6ef03c2f7389825e59bbfd34627725ff]
link controlHandler to controlsList--><path d="M1151.7856,115.3372 C1170.917,115.3372 1192.7239,115.3372 1211.6752,115.3372 " fill="none" id="controlHandler-&gt;controlsList" style="stroke: #000000; stroke-width: 0.4287628405538187;"/><polygon fill="#000000" points="1216.1772,115.3372,1208.4595,111.9071,1211.8896,115.3372,1208.4595,118.7673,1216.1772,115.3372" style="stroke: #000000; stroke-width: 0.4287628405538187;"/><!--MD5=[3341cd2759003c456d44d8b963e96379]
link controlsList to action--><path d="M1303.9621,115.3372 C1327.2439,115.3372 1355.3622,115.3372 1375.8914,115.3372 " fill="none" id="controlsList-&gt;action" style="stroke: #000000; stroke-width: 0.4287628405538187;"/><polygon fill="#000000" points="1380.4105,115.3372,1372.6928,111.9071,1376.1229,115.3372,1372.6928,118.7673,1380.4105,115.3372" style="stroke: #000000; stroke-width: 0.4287628405538187;"/><!--MD5=[971d4e606e2ba04f0860c1bb2d0d1f37]
link entitiesAnimation to entity--><path d="M272.7506,220.0274 C299.0123,223.918 330.6962,228.6121 352.076,231.7789 " fill="none" id="entitiesAnimation-&gt;entity" style="stroke: #000000; stroke-width: 0.4287628405538187;"/><polygon fill="#000000" points="356.476,232.4315,349.3444,227.9072,352.2347,231.803,348.3388,234.6933,356.476,232.4315" style="stroke: #000000; stroke-width: 0.4287628405538187;"/><!--MD5=[5a68d56988e68ca24caf02d450438c43]
link entity to class--><path d="M389.9932,244.52 C411.211,260.9013 455.7303,295.2727 479.3346,313.4968 " fill="none" id="entity-&gt;class" style="stroke: #000000; stroke-width: 0.4287628405538187;"/><polygon fill="#000000" points="482.937,316.2778,478.9237,308.8466,479.543,313.6578,474.7318,314.2771,482.937,316.2778" style="stroke: #000000; stroke-width: 0.4287628405538187;"/><!--MD5=[77de259eef2d668291938df0b7b6cec0]
link freeze to gameLoop--><path d="M1488.3387,75.891 C1443.6788,75.891 1344.5231,75.891 1260.9915,75.891 C376.4538,75.891 376.4538,75.891 376.4538,75.891 C322.0901,75.891 167.425,120.4018 101.116,140.2629 " fill="none" id="freeze-&gt;gameLoop" style="stroke: #000000; stroke-width: 0.4287628405538187;"/><polygon fill="#000000" points="96.8781,141.5346,105.2561,142.6015,100.9848,140.3021,103.2841,136.0308,96.8781,141.5346" style="stroke: #000000; stroke-width: 0.4287628405538187;"/><!--MD5=[3b7ec6d0c23988c6115576e5a02d4d7e]
link game to animationHandler--><path d="M1000.2523,254.2984 C1019.3579,270.6128 1058.6669,304.1721 1082.0173,324.1147 " fill="none" id="game-&gt;animationHandler" style="stroke: #000000; stroke-width: 0.4287628405538187;"/><polygon fill="#000000" points="1085.3445,326.9548,1081.7142,319.3292,1082.0881,324.1657,1077.2516,324.5395,1085.3445,326.9548" style="stroke: #000000; stroke-width: 0.4287628405538187;"/><!--MD5=[f1ca11b79bb26e389ddeed7f2a0af5f9]
link game to audioHandler--><path d="M995.8446,234.2709 C1005.4231,219.9296 1024.3144,194.3007 1046.1813,178.7941 C1052.2869,174.4627 1059.3958,170.8491 1066.4189,167.8975 " fill="none" id="game-&gt;audioHandler" style="stroke: #000000; stroke-width: 0.4287628405538187;"/><polygon fill="#000000" points="1070.7666,166.1456,1062.326,165.8522,1066.7904,167.7498,1064.8928,172.2141,1070.7666,166.1456" style="stroke: #000000; stroke-width: 0.4287628405538187;"/><!--MD5=[e45dabb13981a5f4d52b5bff84c2b39b]
link game to class--><path d="M966.2599,243.894 C889.7172,240.8412 627.9695,233.1638 553.1041,267.1192 C532.4343,276.4937 515.3927,297.1138 505.5817,311.1438 " fill="none" id="game-&gt;class" style="stroke: #000000; stroke-width: 0.4287628405538187;"/><polygon fill="#000000" points="503.0091,314.9109,510.1939,310.4714,505.4269,311.3699,504.5284,306.603,503.0091,314.9109" style="stroke: #000000; stroke-width: 0.4287628405538187;"/><!--MD5=[d06f522b8b5e3b98fc20396985f46b2e]
link game to controlHandler--><path d="M992.1744,233.71 C998.5801,212.1184 1015.5248,164.2196 1046.1813,136.7753 C1051.0435,132.426 1056.8833,128.9101 1062.9202,126.0829 " fill="none" id="game-&gt;controlHandler" style="stroke: #000000; stroke-width: 0.4287628405538187;"/><polygon fill="#000000" points="1067.1135,124.2332,1058.6679,124.2033,1063.1893,125.9607,1061.4319,130.482,1067.1135,124.2332" style="stroke: #000000; stroke-width: 0.4287628405538187;"/><!--MD5=[dfabdc083e247ca5cb16d1d01b766df5]
link game to entity--><path d="M969.9473,238.5456 C958.7823,234.7931 943.9214,230.2654 930.4154,227.6731 C848.6975,211.9872 827.1135,211.3801 743.9035,211.3801 C609.272,211.3801 609.272,211.3801 609.272,211.3801 C533.3784,211.3801 444.212,224.3493 402.2747,231.2241 " fill="none" id="game-&gt;entity" style="stroke: #000000; stroke-width: 0.4287628405538187;"/><polygon fill="#000000" points="397.8816,231.9504,406.0556,234.0754,402.1118,231.2509,404.9363,227.3071,397.8816,231.9504" style="stroke: #000000; stroke-width: 0.4287628405538187;"/><!--MD5=[fd36f63ce6c9dd20e6ddefa551964c77]
link game to gameViewHandler--><path d="M966.8431,247.4013 C947.1371,253.3654 917.5268,265.1272 897.4092,274.9527 " fill="none" id="game-&gt;gameViewHandler" style="stroke: #000000; stroke-width: 0.4287628405538187;"/><polygon fill="#000000" points="893.516,276.8899,901.9536,276.5204,897.3542,274.9788,898.8958,270.3794,893.516,276.8899" style="stroke: #000000; stroke-width: 0.4287628405538187;"/><!--MD5=[9f7bd1d803b99c9620a2fb263be994e4]
link gameViewHandler to game--><path d="M914.6712,279.9847 C934.1456,272.8578 956.6128,263.4079 971.3708,255.8994 " fill="none" id="gameViewHandler-&gt;game" style="stroke: #000000; stroke-width: 0.4287628405538187;"/><polygon fill="#000000" points="975.324,253.837,966.8951,254.3681,971.5232,255.8214,970.07,260.4495,975.324,253.837" style="stroke: #000000; stroke-width: 0.4287628405538187;"/><!--MD5=[125a29208d0dd875c4a339fe4b65e193]
link game to task--><path d="M1005.6032,237.9908 C1026.1581,229.4533 1061.2138,214.8908 1082.5233,206.0411 " fill="none" id="game-&gt;task" style="stroke: #000000; stroke-width: 0.4287628405538187;"/><polygon fill="#000000" points="1086.5879,204.3509,1078.1444,204.1605,1082.6316,206.0035,1080.7885,210.4906,1086.5879,204.3509" style="stroke: #000000; stroke-width: 0.4287628405538187;"/><!--MD5=[3833f352ea812230275963016497784b]
link game to utils--><path d="M991.5912,255.8677 C997.208,278.8511 1013.2009,332.184 1046.1813,362.3046 C1055.6656,370.969 1069.163,376.103 1080.3452,379.0769 " fill="none" id="game-&gt;utils" style="stroke: #000000; stroke-width: 0.4287628405538187;"/><polygon fill="#000000" points="1084.6585,380.1497,1078.0042,374.9488,1080.4991,379.1089,1076.339,381.6038,1084.6585,380.1497" style="stroke: #000000; stroke-width: 0.4287628405538187;"/><!--MD5=[6346f8036b8f832c9b2af5d6ec6f4c26]
link gameLoop to entitiesAnimation--><path d="M92.371,158.7297 C118.5178,169.5088 162.3065,187.5614 192.1938,199.8824 " fill="none" id="gameLoop-&gt;entitiesAnimation" style="stroke: #000000; stroke-width: 0.4287628405538187;"/><polygon fill="#000000" points="196.4994,201.6575,190.6715,195.5448,192.5354,200.0233,188.0569,201.8873,196.4994,201.6575" style="stroke: #000000; stroke-width: 0.4287628405538187;"/><!--MD5=[68bf4e86ed83565f6720b225160f5369]
link gameLoop to game--><path d="M108.9787,149.6382 C167.0511,149.6382 280.2548,149.6382 376.4538,149.6382 C376.4538,149.6382 376.4538,149.6382 743.9035,149.6382 C830.5299,149.6382 852.2167,168.9643 930.4154,206.2349 C945.5421,213.4433 961.192,224.3253 972.2712,232.6982 " fill="none" id="gameLoop-&gt;game" style="stroke: #000000; stroke-width: 0.4287628405538187;"/><polygon fill="#000000" points="975.8385,235.432,971.7997,228.0146,972.4355,232.8237,967.6264,233.4595,975.8385,235.432" style="stroke: #000000; stroke-width: 0.4287628405538187;"/><!--MD5=[d1567e981bb894d518f0c28e59f7219d]
link _GameObject to animationHandler--><path d="M783.2099,362.2832 C794.7162,361.0938 807.3236,359.8607 818.937,358.8745 C896.4059,352.2981 986.0173,346.629 1042.9913,343.2667 " fill="none" id="_GameObject-&gt;animationHandler" style="stroke: #000000; stroke-width: 0.4287628405538187;"/><polygon fill="#000000" points="1047.3733,343.0094,1039.4722,340.026,1043.0927,343.2544,1039.8642,346.875,1047.3733,343.0094" style="stroke: #000000; stroke-width: 0.4287628405538187;"/><!--MD5=[9b2e0430aaf1d99672fbcf6127a872a2]
link _GameObject to gameViewHandler--><path d="M768.6457,351.8942 C791.7509,338.1678 826.0476,317.7939 849.1348,304.0786 " fill="none" id="_GameObject-&gt;gameViewHandler" style="stroke: #000000; stroke-width: 0.4287628405538187;"/><polygon fill="#000000" points="853.0245,301.7676,844.6375,302.7613,849.3385,303.9578,848.142,308.6589,853.0245,301.7676" style="stroke: #000000; stroke-width: 0.4287628405538187;"/><!--MD5=[6f150bd53de2fa3ba1dbc0f694a1b8aa]
link _GameObject to spriteHandler--><path d="M761.8567,381.3957 C800.5182,411.7204 895.5998,478.0706 987.4408,478.0706 C987.4408,478.0706 987.4408,478.0706 1405.9134,478.0706 C1477.7226,478.0706 1558.4414,448.6763 1599.2168,431.6271 " fill="none" id="_GameObject-&gt;spriteHandler" style="stroke: #000000; stroke-width: 0.4287628405538187;"/><polygon fill="#000000" points="1603.2729,429.916,1594.8288,429.7543,1599.3222,431.582,1597.4944,436.0754,1603.2729,429.916" style="stroke: #000000; stroke-width: 0.4287628405538187;"/><!--MD5=[2fa751a7ff13fac64b5240ac670bd764]
link _GameObject to utils--><path d="M783.1002,368.3827 C858.5993,371.8309 1021.8448,379.2862 1079.7449,381.9308 " fill="none" id="_GameObject-&gt;utils" style="stroke: #000000; stroke-width: 0.4287628405538187;"/><polygon fill="#000000" points="1084.0497,382.128,1076.4968,378.3488,1079.7665,381.9321,1076.1832,385.2018,1084.0497,382.128" style="stroke: #000000; stroke-width: 0.4287628405538187;"/><!--MD5=[b5a9d3631c3bb262b4e72826f78ec684]
link <b>index</b> to gameLoop--><path d="M69.4596,120.6504 C69.4596,125.0633 69.4596,129.4769 69.4596,133.8898 " fill="none" id="&lt;b&gt;index&lt;/b&gt;-&gt;gameLoop" style="stroke: #000000; stroke-width: 0.8575256811076374;"/><polygon fill="#000000" points="69.4596,138.3026,72.8897,130.5849,69.4596,134.015,66.0295,130.5849,69.4596,138.3026" style="stroke: #000000; stroke-width: 0.8575256811076374;"/><!--MD5=[488b90e6f085725bffce164bf3224b52]
link obstaclesMovement to game--><path d="M1202.877,225.1477 C1144.874,230.4875 1057.1662,238.5628 1014.3929,242.4997 " fill="none" id="obstaclesMovement-&gt;game" style="stroke: #000000; stroke-width: 0.4287628405538187;"/><polygon fill="#000000" points="1009.8994,242.9139,1017.8984,245.6241,1014.1691,242.5219,1017.2713,238.7926,1009.8994,242.9139" style="stroke: #000000; stroke-width: 0.4287628405538187;"/><!--MD5=[321b49b98442fe45914d6f4a6c5c050e]
link pause to game--><path d="M1490.9542,183.8252 C1461.5239,190.0011 1407.1139,202.9043 1363.4658,221.6704 C1346.3496,229.0288 1345.3978,238.122 1327.4498,243.1085 C1213.7847,274.6861 1070.2349,257.7688 1013.664,249.0152 " fill="none" id="pause-&gt;game" style="stroke: #000000; stroke-width: 0.4287628405538187;"/><polygon fill="#000000" points="1009.1019,248.2974,1016.198,252.8772,1013.3382,248.959,1017.2565,246.0992,1009.1019,248.2974" style="stroke: #000000; stroke-width: 0.4287628405538187;"/><!--MD5=[ebf1627a953b7d49b41df0275573ff63]
link player to ko--><path d="M1282.7384,337.8711 C1311.7656,333.8742 1362.4797,326.8888 1388.2226,323.3429 " fill="none" id="player-&gt;ko" style="stroke: #000000; stroke-width: 0.4287628405538187;"/><polygon fill="#000000" points="1392.7332,322.7229,1384.6181,320.3833,1388.486,323.3108,1385.5586,327.1788,1392.7332,322.7229" style="stroke: #000000; stroke-width: 0.4287628405538187;"/><!--MD5=[815ef2fcc11ab3deb73fff3ab2f16df1]
link player to player/idle--><path d="M1281.1091,335.9854 C1294.4779,332.4799 1312.2801,327.2978 1327.4498,321.1434 C1344.1972,314.3483 1347.3958,310.5452 1363.4658,302.2778 C1369.1941,299.3331 1375.3854,296.1842 1381.1737,293.2575 " fill="none" id="player-&gt;player/idle" style="stroke: #000000; stroke-width: 0.4287628405538187;"/><polygon fill="#000000" points="1385.1012,291.2723,1376.6661,291.6935,1381.2748,293.2069,1379.7614,297.8157,1385.1012,291.2723" style="stroke: #000000; stroke-width: 0.4287628405538187;"/><!--MD5=[540985d1e9c27e963122b1f79fcc7332]
link player to run--><path d="M1282.7384,343.8618 C1311.294,347.7944 1360.8332,354.6177 1386.9535,358.2142 " fill="none" id="player-&gt;run" style="stroke: #000000; stroke-width: 0.4287628405538187;"/><polygon fill="#000000" points="1391.2411,358.805,1384.0541,354.3693,1386.9923,358.2291,1383.1325,361.1673,1391.2411,358.805" style="stroke: #000000; stroke-width: 0.4287628405538187;"/><!--MD5=[ae3953f340f968c6d45d6ed0a14f636e]
link player to run_down--><path d="M1277.9791,347.9882 C1302.9074,358.4372 1349.5825,377.999 1378.6526,390.1853 " fill="none" id="player-&gt;run_down" style="stroke: #000000; stroke-width: 0.4287628405538187;"/><polygon fill="#000000" points="1382.8116,391.9278,1377.0149,385.7856,1378.856,390.2735,1374.368,392.1146,1382.8116,391.9278" style="stroke: #000000; stroke-width: 0.4287628405538187;"/><!--MD5=[d477334ddc72196f3f8dc0a2fff0caca]
link player/idle to spriteHandler--><path d="M1425.6279,291.0991 C1432.3766,294.4657 1439.9228,298.3924 1446.6458,302.2778 C1506.6983,336.9827 1574.3314,383.4418 1606.6515,406.1319 " fill="none" id="player/idle-&gt;spriteHandler" style="stroke: #000000; stroke-width: 0.4287628405538187;"/><polygon fill="#000000" points="1610.4161,408.7791,1606.0705,401.5372,1606.9069,406.3154,1602.1287,407.1518,1610.4161,408.7791" style="stroke: #000000; stroke-width: 0.4287628405538187;"/><!--MD5=[df0cfbb33a54239eff208483190c46ae]
link <b>playersCollisions</b> to entity--><path d="M377.3113,205.8576 C377.3113,210.4222 377.3113,214.9868 377.3113,219.5514 " fill="none" id="&lt;b&gt;playersCollisions&lt;/b&gt;-&gt;entity" style="stroke: #000000; stroke-width: 0.8575256811076374;"/><polygon fill="#000000" points="377.3113,224.1161,380.7414,216.3983,377.3113,219.8284,373.8812,216.3983,377.3113,224.1161" style="stroke: #000000; stroke-width: 0.8575256811076374;"/><!--MD5=[46d483a3987540e069e8c170403c2d31]
link pterodactyl to fly--><path d="M1289.2813,407.9987 C1319.3633,416.4642 1365.7812,429.5276 1389.3545,436.1629 " fill="none" id="pterodactyl-&gt;fly" style="stroke: #000000; stroke-width: 0.4287628405538187;"/><polygon fill="#000000" points="1393.4878,437.3245,1386.9906,431.9287,1389.3611,436.1609,1385.1288,438.5314,1393.4878,437.3245" style="stroke: #000000; stroke-width: 0.4287628405538187;"/><!--MD5=[f58ecfc37faef95b1f91f47bc35a1635]
link sprite to sprite/Background--><path d="M1740.0139,409.2687 C1749.9527,395.8141 1768.8011,372.4929 1789.6561,358.017 C1795.3586,354.0569 1801.8501,350.6088 1808.3416,347.6701 " fill="none" id="sprite-&gt;sprite/Background" style="stroke: #000000; stroke-width: 0.4287628405538187;"/><polygon fill="#000000" points="1812.3805,345.9053,1803.9351,345.8494,1808.451,347.6207,1806.6797,352.1366,1812.3805,345.9053" style="stroke: #000000; stroke-width: 0.4287628405538187;"/><!--MD5=[66610a90f9d8356acaad8d099ec7c44a]
link sprite to sprite/Cactus--><path d="M1749.8841,413.5075 C1767.2918,407.2029 1794.5183,397.338 1815.6048,389.7008 " fill="none" id="sprite-&gt;sprite/Cactus" style="stroke: #000000; stroke-width: 0.4287628405538187;"/><polygon fill="#000000" points="1819.7295,388.2044,1811.3053,387.6031,1815.6974,389.6624,1813.6381,394.0545,1819.7295,388.2044" style="stroke: #000000; stroke-width: 0.4287628405538187;"/><!--MD5=[1eace6dbaabec8ba038d845a7208dc03]
link sprite to sprite/Ptero--><path d="M1753.7343,419.7588 C1766.5201,419.7588 1783.3704,419.7588 1799.1832,419.7588 " fill="none" id="sprite-&gt;sprite/Ptero" style="stroke: #000000; stroke-width: 0.4287628405538187;"/><polygon fill="#000000" points="1803.608,419.7588,1795.8903,416.3287,1799.3204,419.7588,1795.8903,423.1889,1803.608,419.7588" style="stroke: #000000; stroke-width: 0.4287628405538187;"/><!--MD5=[42e99a4c0cc5fdb6615599c1b62a8983]
link sprite to sprite/Tyra--><path d="M1750.0813,426.1139 C1761.3663,430.207 1776.3644,435.6248 1789.6561,440.3394 C1798.5915,443.5079 1808.333,446.9188 1817.1741,449.9984 " fill="none" id="sprite-&gt;sprite/Tyra" style="stroke: #000000; stroke-width: 0.4287628405538187;"/><polygon fill="#000000" points="1821.436,451.4811,1815.2738,445.7056,1817.3864,450.0723,1813.0197,452.1849,1821.436,451.4811" style="stroke: #000000; stroke-width: 0.4287628405538187;"/><!--MD5=[b3b2633b40cc1ee6a49870ddc3945f99]
link sprite to Ui--><path d="M1739.9025,430.312 C1749.7211,443.8055 1768.4409,467.046 1789.6561,480.6431 C1802.4332,488.833 1819.1293,493.8285 1831.066,496.6031 " fill="none" id="sprite-&gt;Ui" style="stroke: #000000; stroke-width: 0.4287628405538187;"/><polygon fill="#000000" points="1835.5509,497.5928,1828.7617,492.5692,1831.3655,496.6621,1827.2726,499.2659,1835.5509,497.5928" style="stroke: #000000; stroke-width: 0.4287628405538187;"/><!--MD5=[a2ef5ef2b15ae13673dd5017c66c4294]
link spriteHandler to sprite--><path d="M1674.1131,419.7588 C1684.7893,419.7588 1695.7656,419.7588 1705.1898,419.7588 " fill="none" id="spriteHandler-&gt;sprite" style="stroke: #000000; stroke-width: 0.4287628405538187;"/><polygon fill="#000000" points="1709.6833,419.7588,1701.9655,416.3287,1705.3956,419.7588,1701.9655,423.1889,1709.6833,419.7588" style="stroke: #000000; stroke-width: 0.4287628405538187;"/><!--MD5=[36926e1b44b6bbfa239f8cab50698878]
link task to backgroundsMovement--><path d="M1118.2564,195.822 C1137.645,192.5385 1171.483,186.806 1201.1534,181.78 " fill="none" id="task-&gt;backgroundsMovement" style="stroke: #000000; stroke-width: 0.4287628405538187;"/><polygon fill="#000000" points="1205.4925,181.0443,1197.307,178.9642,1201.2662,181.767,1198.4634,185.7262,1205.4925,181.0443" style="stroke: #000000; stroke-width: 0.4287628405538187;"/><!--MD5=[fa4953fd7f989eea82d0545f67e7e304]
link task to obstaclesMovement--><path d="M1118.5479,200.7305 C1138.331,203.4325 1172.8464,208.1472 1202.7398,212.2316 " fill="none" id="task-&gt;obstaclesMovement" style="stroke: #000000; stroke-width: 0.4287628405538187;"/><polygon fill="#000000" points="1207.1132,212.8293,1199.926,208.3938,1202.8644,212.2535,1199.0047,215.1919,1207.1132,212.8293" style="stroke: #000000; stroke-width: 0.4287628405538187;"/><script type="text/plantuml"><![CDATA[MD5=[b18c0bd7f37fcef2cc308c9ac36756f4]
@startuml

scale max 1920 width
left to right direction

skinparam nodesep 21
skinparam ranksep 42
skinparam monochrome true
skinparam shadowing false
skinparam defaultFontName Tahoma
skinparam defaultFontSize 12
skinparam roundCorner 6
skinparam dpi 150
skinparam arrowColor black
skinparam arrowThickness 0.5
skinparam packageTitleAlignment left

skinparam usecase {
  borderThickness 0.5
}

skinparam rectangle {
  borderThickness 0.5
}

skinparam component {
  borderThickness 1
}


(action)
(animationHandler)
(audioHandler)
(backgroundsMovement)
(cactus)
(cactus/idle)
(class)
(class/Background)
(class/Cactus)
(class/Ptero)
rectangle "class/Tyra" as _class_Tyra
(controlHandler)
(controlsList)
(doJump)
(entitiesAnimation)
(entity)
(fly)
(freeze)
(game)
(gameLoop)
rectangle "GameObject" as _GameObject
(gameViewHandler)
(<b>index</b>)
(<b>interfaceAnimation</b>)
(ko)
(obstaclesMovement)
(pause)
(player)
(player/idle)
(<b>playersCollisions</b>)
(pterodactyl)
(run)
(run_down)
(sprite)
(sprite/Background)
(sprite/Cactus)
(sprite/Ptero)
(sprite/Tyra)
(spriteHandler)
(task)
(<b>tasksManager</b>)
(Ui)
(utils)


(action) --> (doJump)
(action) --> (freeze)
(action) --> (pause)
(animationHandler) --> (cactus)
(animationHandler) --> (player)
(animationHandler) --> (pterodactyl)
(cactus) --> (cactus/idle)
(class) --> (class/Background)
(class) --> (class/Cactus)
(class) --> (class/Ptero)
(class) --> _class_Tyra
(class) --> _GameObject
(class/Background) --> _GameObject
(class/Cactus) --> _GameObject
(class/Ptero) --> _GameObject
_class_Tyra --> _GameObject
_class_Tyra --> (utils)
(controlHandler) --> (controlsList)
(controlsList) --> (action)
(entitiesAnimation) --> (entity)
(entity) --> (class)
(freeze) --> (gameLoop)
(game) --> (animationHandler)
(game) --> (audioHandler)
(game) --> (class)
(game) --> (controlHandler)
(game) --> (entity)
(game) --> (gameViewHandler)
(game) --> (task)
(game) --> (utils)
(gameLoop) --> (entitiesAnimation)
(gameLoop) --> (game)
_GameObject --> (animationHandler)
_GameObject --> (gameViewHandler)
_GameObject --> (spriteHandler)
_GameObject --> (utils)
(gameViewHandler) --> (game)
(<b>index</b>) -[thickness=1]> (gameLoop)
(obstaclesMovement) --> (game)
(pause) --> (game)
(player) --> (ko)
(player) --> (player/idle)
(player) --> (run)
(player) --> (run_down)
(player/idle) ---> (spriteHandler)
(<b>playersCollisions</b>) -[thickness=1]> (entity)
(pterodactyl) --> (fly)
(sprite) --> (sprite/Background)
(sprite) --> (sprite/Cactus)
(sprite) --> (sprite/Ptero)
(sprite) --> (sprite/Tyra)
(sprite) --> (Ui)
(spriteHandler) --> (sprite)
(task) --> (backgroundsMovement)
(task) --> (obstaclesMovement)

@enduml


' View and edit on https://arkit.pro
]]></script></g></svg>